HIERARCHY
ROOT Hips
{
 OFFSET 0.000000 0.000000 0.000000
 CHANNELS 6 Xposition Yposition Zposition Yrotation Xrotation Zrotation
 JOINT Chest
 {
  OFFSET 0.000000 9.585900 0.002600
  CHANNELS 3 Yrotation Xrotation Zrotation
  JOINT Chest2
  {
   OFFSET 0.000000 9.601200 -0.005300
   CHANNELS 3 Yrotation Xrotation Zrotation
   JOINT Chest3
   {
    OFFSET 0.000000 9.561800 0.000000
    CHANNELS 3 Yrotation Xrotation Zrotation
    JOINT Chest4
    {
     OFFSET 0.000000 9.552100 0.000000
     CHANNELS 3 Yrotation Xrotation Zrotation
     JOINT Neck
     {
      OFFSET 0.000000 14.453000 0.000000
      CHANNELS 3 Yrotation Xrotation Zrotation
      JOINT Head
      {
       OFFSET 0.000000 8.936500 -0.011300
       CHANNELS 3 Yrotation Xrotation Zrotation
       End Site
       {
        OFFSET 0.000000 17.073600 -0.006000
       }
      }
     }
     JOINT RightCollar
     {
      OFFSET -2.921100 9.558500 0.000000
      CHANNELS 3 Yrotation Xrotation Zrotation
      JOINT RightShoulder
      {
       OFFSET -13.519700 0.000000 0.000000
       CHANNELS 3 Yrotation Xrotation Zrotation
       JOINT RightElbow
       {
        OFFSET 0.000000 -29.696600 0.000000
        CHANNELS 3 Yrotation Xrotation Zrotation
        JOINT RightWrist
        {
         OFFSET 0.000000 -24.004700 0.000000
         CHANNELS 3 Yrotation Xrotation Zrotation
         End Site
         {
          OFFSET 0.000000 -17.728500 0.000000
         }
        }
       }
      }
     }
     JOINT LeftCollar
     {
      OFFSET 2.921100 9.558500 0.000000
      CHANNELS 3 Yrotation Xrotation Zrotation
      JOINT LeftShoulder
      {
       OFFSET 13.519700 0.000000 0.000000
       CHANNELS 3 Yrotation Xrotation Zrotation
       JOINT LeftElbow
       {
        OFFSET 0.000000 -29.696600 0.000000
        CHANNELS 3 Yrotation Xrotation Zrotation
        JOINT LeftWrist
        {
         OFFSET 0.000000 -24.004700 0.000000
         CHANNELS 3 Yrotation Xrotation Zrotation
         End Site
         {
          OFFSET 0.000000 -17.728500 0.000000
         }
        }
       }
      }
     }
    }
   }
  }
 }
 JOINT RightHip
 {
  OFFSET -7.771700 -0.012900 -0.001300
  CHANNELS 3 Yrotation Xrotation Zrotation
  JOINT RightKnee
  {
   OFFSET 0.000000 -40.869800 0.001200
   CHANNELS 3 Yrotation Xrotation Zrotation
   JOINT RightAnkle
   {
    OFFSET 0.000000 -39.717900 0.002100
    CHANNELS 3 Yrotation Xrotation Zrotation
    JOINT RightToe
    {
     OFFSET 0.000000 -4.965400 11.033500
     CHANNELS 3 Yrotation Xrotation Zrotation
     End Site
     {
      OFFSET 0.000000 -1.423100 5.872300
     }
    }
   }
  }
 }
 JOINT LeftHip
 {
  OFFSET 7.771700 -0.012900 -0.001300
  CHANNELS 3 Yrotation Xrotation Zrotation
  JOINT LeftKnee
  {
   OFFSET 0.000000 -40.869800 0.001200
   CHANNELS 3 Yrotation Xrotation Zrotation
   JOINT LeftAnkle
   {
    OFFSET 0.000000 -39.717900 0.002100
    CHANNELS 3 Yrotation Xrotation Zrotation
    JOINT LeftToe
    {
     OFFSET 0.000000 -4.965400 11.033500
     CHANNELS 3 Yrotation Xrotation Zrotation
     End Site
     {
      OFFSET 0.000000 -1.423100 5.872300
     }
    }
   }
  }
 }
}
MOTION
Frames: 16
Frame Time: 0.008333
0.000000 85.388000 0.000000 0.000000 -5.767877 0.000000 0.000000 11.653817 0.000000 0.000000 -5.885947 0.000000 0.000000 -0.000000 0.000000 0.000000 -0.000000 0.000000 0.000000 12.528835 0.000000 0.000000 0.711642 0.000000 0.000000 -0.000000 0.000000 0.000000 0.000000 -90.000000 0.000000 -2.309062 0.000000 0.000000 2.309062 0.000000 0.000000 -0.000000 0.000000 0.000000 -0.000000 90.000000 0.000000 -2.309062 0.000000 0.000000 2.309062 0.000000 0.000000 8.520406 0.000000 0.000000 1.905762 0.000000 -0.000000 -4.658285 0.000000 0.000000 -0.000000 0.000000 0.000000 8.520406 0.000000 0.000000 1.905762 0.000000 -0.000000 -4.658285 0.000000 0.000000 -0.000000 0.000000
-3.856194 52.989804 19.018491 179.037244 -15.493482 -2.699162 0.813151 14.819514 1.615220 0.054701 1.349575 0.141814 0.094899 2.267108 0.240777 0.703809 13.246583 1.484328 -0.736702 20.047640 -1.829571 -0.383107 -4.479609 -1.751155 1.164973 -0.164518 2.425340 1.654916 -7.610224 -7.161878 -89.348163 -81.725092 119.972857 -5.273987 -19.108146 -10.922121 -6.366012 -1.047472 1.079158 1.334983 -6.137475 9.978603 61.833403 -59.467254 -105.937985 2.977883 -7.288571 10.884950 0.337394 -62.475559 13.076193 170.313737 86.271785 169.269696 -9.979401 -21.424640 13.414909 0.004467 0.009062 0.004232 3.646384 -61.319970 -1.504644 121.137265 77.410872 120.483815 -5.007171 -21.229043 -2.244746 0.026901 0.094572 0.011563
-3.855940 52.990278 19.018021 179.038731 -15.492480 -2.705828 0.814198 14.822348 1.621085 0.049623 1.351964 0.143147 0.097682 2.264302 0.239910 0.702935 13.245232 1.483437 -0.742894 20.044038 -1.814504 -0.376292 -4.481592 -1.760041 1.152445 -0.135767 2.423735 1.644667 -7.618730 -7.156441 -89.430003 -81.722025 120.077998 -5.272024 -19.110666 -10.919968 -6.368614 -1.039495 1.079263 1.333337 -6.132416 9.978339 61.813326 -59.461019 -105.913272 2.974041 -7.301635 10.883350 0.310868 -62.472227 13.076655 169.985130 86.269288 168.918104 -9.647726 -21.443841 13.343716 0.012698 -0.017198 -0.010403 3.623805 -61.323493 -1.487728 121.156018 77.410755 120.504339 -4.999936 -21.227930 -2.251262 0.026855 0.091580 0.011838
-3.856915 52.990516 19.018037 179.038073 -15.486941 -2.704574 0.810235 14.822801 1.619020 0.050432 1.349500 0.143673 0.098496 2.265043 0.239304 0.697324 13.253412 1.483671 -0.713719 20.009141 -1.776903 -0.383552 -4.490343 -1.758150 1.147684 -0.125320 2.423980 1.629032 -7.619366 -7.152877 -89.308234 -81.711876 119.977369 -5.273489 -19.129990 -10.907352 -6.361954 -1.048643 1.077896 1.328870 -6.097438 9.971309 61.763946 -59.448179 -105.859445 2.930649 -7.342611 10.868042 0.305905 -62.476750 13.076911 169.925977 86.269977 168.859396 -9.502762 -21.451986 13.304324 0.022989 -0.025581 -0.015160 3.624941 -61.329550 -1.488852 121.146328 77.410460 120.491601 -5.000062 -21.224454 -2.247857 0.024007 0.090083 0.010380
-3.856555 52.990912 19.017466 179.037673 -15.483621 -2.711179 0.803683 14.825562 1.626042 0.054443 1.346936 0.142627 0.093709 2.269825 0.241295 0.694429 13.257168 1.485675 -0.679994 19.982135 -1.767873 -0.371647 -4.517636 -1.742971 1.148457 -0.116713 2.420006 1.621209 -7.608654 -7.152169 -89.039902 -81.695688 119.715126 -5.270423 -19.155158 -10.889571 -6.351649 -1.048469 1.073741 1.328669 -6.101011 9.965588 61.725587 -59.437345 -105.819831 2.928483 -7.345377 10.868036 0.291861 -62.478129 13.082882 169.850919 86.273105 168.781434 -9.353127 -21.459342 13.268523 0.025580 -0.033304 -0.017758 3.611198 -61.335543 -1.472288 121.161951 77.412111 120.510313 -5.000923 -21.223786 -2.248410 0.027618 0.088868 0.008361
-3.856615 52.991289 19.016493 179.035795 -15.480908 -2.714846 0.798890 14.840786 1.631805 0.054268 1.348156 0.143172 0.096277 2.259776 0.239245 0.691046 13.274309 1.492653 -0.641646 19.939678 -1.763690 -0.296782 -4.588486 -1.729657 1.151040 -0.124246 2.410681 1.608116 -7.594074 -7.147219 -89.076729 -81.694754 119.772633 -5.269329 -19.161767 -10.895813 -6.347112 -1.044801 1.067352 1.332141 -6.122490 9.959775 61.685285 -59.429415 -105.780328 2.931675 -7.348490 10.875858 0.284306 -62.478969 13.069462 169.459164 86.269405 168.372639 -9.164739 -21.467928 13.230346 0.022404 -0.044230 -0.019143 3.599523 -61.337541 -1.463070 121.155602 77.409730 120.505751 -4.996348 -21.225450 -2.252129 0.028458 0.088741 0.007298
-3.857887 52.991118 19.016888 179.029330 -15.467670 -2.710572 0.802644 14.832802 1.629668 0.054267 1.348389 0.143353 0.094338 2.266176 0.240666 0.693092 13.272967 1.494820 -0.624228 19.920309 -1.761471 -0.222240 -4.648464 -1.728353 1.149022 -0.116247 2.405823 1.593449 -7.577919 -7.136696 -89.065079 -81.698705 119.780480 -5.254665 -19.182957 -10.898113 -6.346542 -1.048399 1.064132 1.325063 -6.111444 9.954931 61.659603 -59.427526 -105.753770 2.938825 -7.350805 10.882984 0.299098 -62.494830 13.066392 169.659416 86.274042 168.591204 -9.237008 -21.460256 13.234729 0.019751 -0.034936 -0.009216 3.610264 -61.351009 -1.469867 121.185915 77.410817 120.527716 -4.985062 -21.228408 -2.241839 0.020964 0.087528 0.004232
-3.860995 52.990947 19.016505 179.029101 -15.456602 -2.697686 0.798322 14.828200 1.617244 0.054203 1.348335 0.143512 0.096103 2.278225 0.244426 0.693386 13.261678 1.493581 -0.608106 19.903470 -1.757884 -0.161084 -4.699028 -1.734215 1.145364 -0.103743 2.402859 1.603172 -7.528514 -7.124497 -89.243515 -81.711228 119.948653 -5.240964 -19.210852 -10.895734 -6.349720 -1.048368 1.063232 1.305787 -6.081572 9.949904 61.671590 -59.433668 -105.756010 2.960297 -7.326218 10.879262 0.318832 -62.510992 13.115374 170.759782 86.289644 169.764402 -9.791359 -21.429625 13.321071 -0.004509 0.002220 0.009524 3.634075 -61.362352 -1.499500 121.190862 77.409462 120.531080 -4.983781 -21.224570 -2.239382 0.021217 0.083355 0.003896
-3.864266 52.991010 19.014901 179.025062 -15.451380 -2.683713 0.801739 14.829309 1.606446 0.054186 1.347990 0.143545 0.094281 2.279737 0.245103 0.694980 13.261232 1.495451 -0.569170 19.870392 -1.751873 -0.119876 -4.735189 -1.739595 1.141971 -0.096205 2.399749 1.612135 -7.511961 -7.120817 -89.244698 -81.718591 119.936256 -5.243866 -19.219168 -10.893184 -6.359759 -1.045402 1.062465 1.300605 -6.075576 9.948611 61.677301 -59.433864 -105.754947 2.968196 -7.315474 10.871810 0.339086 -62.519195 13.134171 171.402767 86.298254 170.448356 -10.104384 -21.413586 13.370080 -0.017326 0.017260 0.014473 3.649085 -61.364164 -1.522276 121.181758 77.398445 120.511822 -4.980977 -21.229664 -2.234925 0.013008 0.083472 0.000413
-3.865362 52.991064 19.013484 179.020977 -15.443849 -2.683771 0.805593 14.836229 1.611844 0.056206 1.341357 0.140780 0.092446 2.275860 0.245045 0.696116 13.261116 1.496451 -0.527678 19.841079 -1.746475 -0.079628 -4.771050 -1.745896 1.140911 -0.095338 2.397479 1.614922 -7.492327 -7.119956 -89.213374 -81.719705 119.893962 -5.239969 -19.215702 -10.878873 -6.365879 -1.036237 1.063645 1.299973 -6.081643 9.946348 61.665221 -59.429725 -105.741632 2.971453 -7.306224 10.865192 0.340422 -62.525667 13.102639 170.890552 86.287448 169.900760 -9.828275 -21.427451 13.328613 -0.005307 -0.010215 0.000608 3.649668 -61.370415 -1.519997 121.186046 77.394905 120.511432 -4.977574 -21.233896 -2.232039 0.006116 0.084805 0.000348
-3.866528 52.991058 19.012119 179.020920 -15.434784 -2.685285 0.805759 14.837819 1.618037 0.054626 1.347848 0.143992 0.092680 2.262876 0.239127 0.697896 13.260756 1.497508 -0.485819 19.812891 -1.741539 -0.046150 -4.805712 -1.753217 1.149356 -0.081356 2.394341 1.601153 -7.491011 -7.121392 -89.148561 -81.717030 119.829461 -5.253474 -19.172605 -10.839269 -6.363641 -1.030176 1.060907 1.290899 -6.086178 9.947645 61.592721 -59.423125 -105.690599 2.959501 -7.326662 10.869429 0.337994 -62.532341 13.062817 170.239387 86.276286 169.206381 -9.457747 -21.448964 13.268491 0.009552 -0.036070 -0.012967 3.646168 -61.378080 -1.517083 121.162511 77.384302 120.483088 -4.984832 -21.237015 -2.227647 0.005912 0.086327 -0.000384
-3.867952 52.991122 19.010417 179.025838 -15.427203 -2.687019 0.806523 14.837832 1.622049 0.054549 1.347642 0.143908 0.086602 2.264878 0.242315 0.698471 13.260752 1.498607 -0.425047 19.763109 -1.740829 -0.071310 -4.793142 -1.745922 1.154488 -0.075199 2.389317 1.591462 -7.497700 -7.123799 -89.110699 -81.715748 119.795323 -5.265698 -19.140228 -10.817327 -6.354769 -1.022689 1.044886 1.271645 -6.097399 9.956193 61.598421 -59.426593 -105.690847 2.962263 -7.312416 10.860150 0.331698 -62.537964 13.047836 169.998036 86.272033 168.949115 -9.255478 -21.463761 13.230253 0.015310 -0.044772 -0.018587 3.638050 -61.384475 -1.514085 121.156812 77.379944 120.475263 -4.988422 -21.238211 -2.227366 0.006784 0.087182 0.001417
-3.870339 52.991176 19.008655 179.034204 -15.420104 -2.684095 0.802772 14.837246 1.618091 0.054443 1.347692 0.143768 0.088876 2.264483 0.244313 0.697092 13.259238 1.498437 -0.396712 19.731918 -1.741106 -0.072377 -4.794463 -1.740279 1.140606 -0.052378 2.386228 1.593438 -7.517148 -7.121079 -89.065830 -81.715094 119.756450 -5.275735 -19.122290 -10.800435 -6.351852 -1.018946 1.039729 1.252776 -6.095960 9.964311 61.598972 -59.424967 -105.688123 2.956038 -7.307636 10.851179 0.325714 -62.543456 13.045513 170.056511 86.269380 169.011109 -9.195457 -21.473653 13.209596 0.014514 -0.041822 -0.017299 3.635407 -61.390955 -1.522477 121.175590 77.386010 120.489251 -4.983981 -21.234643 -2.221487 0.006535 0.085173 -0.000289
-3.872351 52.991430 19.006472 179.038241 -15.417107 -2.682216 0.801848 14.839799 1.614996 0.052802 1.345158 0.144143 0.093202 2.268156 0.244208 0.695178 13.266020 1.493458 -0.383267 19.705191 -1.735552 -0.037802 -4.833365 -1.746747 1.133783 -0.048188 2.389671 1.583224 -7.527034 -7.117227 -88.865426 -81.712675 119.564080 -5.272124 -19.133681 -10.776763 -6.345295 -1.023947 1.043688 1.235657 -6.097704 9.973973 61.586800 -59.432963 -105.699192 2.955950 -7.316351 10.865928 0.329178 -62.545951 13.049710 170.214519 86.269352 169.178742 -9.191881 -21.478953 13.201228 0.078390 -0.029778 -0.010007 3.637315 -61.391689 -1.526560 121.198620 77.392367 120.507611 -4.981764 -21.237535 -2.216311 0.006201 0.085995 0.000202
-3.873869 52.991729 19.004595 179.039537 -15.414389 -2.682429 0.802168 14.839799 1.614853 0.051913 1.344846 0.143403 0.096675 2.278135 0.242478 0.691542 13.256068 1.495558 -0.378612 19.698703 -1.735298 -0.006678 -4.874899 -1.755767 1.132901 -0.039090 2.389376 1.574417 -7.533439 -7.119534 -88.815071 -81.707687 119.524779 -5.269691 -19.138238 -10.771097 -6.333113 -1.019242 1.040708 1.223752 -6.101768 9.981769 61.587772 -59.432903 -105.707803 2.953810 -7.314102 10.861683 0.334259 -62.548358 13.038696 170.121230 86.266629 169.081101 -9.088281 -21.487960 13.177958 0.046093 -0.036936 -0.012512 3.637282 -61.395326 -1.529757 121.226805 77.393281 120.533802 -4.975977 -21.236635 -2.212584 0.004204 0.082042 -0.001327
-3.875484 52.991943 19.003528 179.037901 -15.409280 -2.681017 0.805851 14.838043 1.614825 0.054478 1.348540 0.143616 0.096653 2.283131 0.240530 0.693188 13.252539 1.496848 -0.373034 19.677133 -1.735027 -0.000639 -4.899576 -1.756727 1.126714 -0.037630 2.390562 1.576609 -7.523182 -7.124934 -88.772401 -81.699265 119.479411 -5.269608 -19.145293 -10.753978 -6.326824 -1.021293 1.035927 1.207610 -6.107525 9.987258 61.585958 -59.435801 -105.705605 2.953770 -7.312346 10.854950 0.345732 -62.553001 13.022641 170.018540 86.265526 168.974406 -9.004202 -21.499657 13.156209 -0.003110 -0.039000 -0.010767 3.636352 -61.399787 -1.533234 121.224822 77.389303 120.529885 -4.971465 -21.234432 -2.214252 0.004311 0.080051 -0.001020
